# Blender 4.3.2
# www.blender.org
mtllib empty_kornel.mtl
o down
v -1.000000 -1.000000 1.000000
v 1.000000 -1.000000 1.000000
v -1.000000 -1.000000 -1.000000
v 1.000000 -1.000000 -1.000000
vn -0.0000 1.0000 -0.0000
vt 1.000000 0.000000
vt 0.000000 1.000000
vt 0.000000 0.000000
vt 1.000000 1.000000
s 1
f 2/1/1 3/2/1 1/3/1
f 2/1/1 4/4/1 3/2/1
o top
v 1.000000 1.000000 1.000000
v -1.000000 1.000000 1.000000
v 1.000000 1.000000 -1.000000
v -1.000000 1.000000 -1.000000
vn -0.0000 -1.0000 -0.0000
vt 1.000000 0.000000
vt 0.000000 1.000000
vt 0.000000 0.000000
vt 1.000000 1.000000
s 1
f 6/5/2 7/6/2 5/7/2
f 6/5/2 8/8/2 7/6/2
o back
v 1.000000 -1.000000 0.999999
v -1.000000 -1.000000 1.000001
v 1.000000 1.000000 0.999999
v -1.000000 1.000000 1.000001
vn -0.0000 -0.0000 -1.0000
vt 1.000000 0.000000
vt 0.000000 1.000000
vt 0.000000 0.000000
vt 1.000000 1.000000
s 1
f 10/9/3 11/10/3 9/11/3
f 10/9/3 12/12/3 11/10/3
o right
v -1.000000 1.000000 1.000000
v -1.000000 -1.000000 1.000000
v -1.000000 1.000000 -1.000000
v -1.000000 -1.000000 -1.000000
vn 1.0000 -0.0000 -0.0000
vt 1.000000 0.000000
vt 0.000000 1.000000
vt 0.000000 0.000000
vt 1.000000 1.000000
s 1
f 14/13/4 15/14/4 13/15/4
f 14/13/4 16/16/4 15/14/4
o left
v 1.000000 1.000000 -1.000000
v 1.000000 -1.000000 -1.000000
v 1.000000 1.000000 1.000000
v 1.000000 -1.000000 1.000000
vn -1.0000 -0.0000 -0.0000
vt 1.000000 0.000000
vt 0.000000 1.000000
vt 0.000000 0.000000
vt 1.000000 1.000000
s 1
f 18/17/5 19/18/5 17/19/5
f 18/17/5 20/20/5 19/18/5
